<svg width="80" height="80" viewBox="0 0 80 80" fill="none" xmlns="http://www.w3.org/2000/svg" className="stroke-current">
  <path fill-rule="evenodd" clip-rule="evenodd" d="M27.4222 20.1954C22.0201 19.0471 16.9891 21.1818 16.1854 24.9633L4.49494 51.104C3.11702 57.5866 9.00691 64.3311 17.6504 66.1683C26.2938 68.0056 34.4177 64.2398 35.7957 57.7572L35.7483 29.1216C36.5521 25.34 32.8244 21.3437 27.4222 20.1954ZM18.6899 61.2776C24.6323 62.5407 30.1011 60.4991 30.9049 56.7176C31.7087 52.9361 27.5431 48.8466 21.6007 47.5835C15.6583 46.3204 10.1895 48.362 9.38568 52.1435C8.58189 55.9251 12.7475 60.0145 18.6899 61.2776Z" fill="#C2CCDE" fill-opacity="0.25" />
  <path d="M28.6697 14.3265C32.4512 15.1303 35.1444 17.5336 34.6851 19.6945L33.8532 23.6081C32.3462 22.0223 30.0881 20.7621 27.4222 20.1954C24.7563 19.6288 22.1808 19.8616 20.1591 20.6973L20.991 16.7837C21.4503 14.6229 24.8882 13.5227 28.6697 14.3265Z" fill="#C2CCDE" fill-opacity="0.25" />
  <path d="M30.9049 56.7176C30.1011 60.4991 24.6323 62.5407 18.6899 61.2776C12.7475 60.0145 8.58189 55.9251 9.38568 52.1435C10.1895 48.362 15.6583 46.3204 21.6007 47.5835C27.5431 48.8466 31.7087 52.9361 30.9049 56.7176Z" fill="#C2CCDE" fill-opacity="0.25" />
  <path fill-rule="evenodd" clip-rule="evenodd" d="M52.3733 20.1954C57.7754 19.0471 62.8063 21.1818 63.6101 24.9633L75.3005 51.104C76.6784 57.5866 70.7886 64.3311 62.1451 66.1683C53.5017 68.0056 45.3777 64.2398 43.9998 57.7572L44.0472 29.1216C43.2434 25.34 46.9711 21.3437 52.3733 20.1954ZM61.1055 61.2776C55.1632 62.5407 49.6943 60.4991 48.8905 56.7176C48.0868 52.9361 52.2524 48.8466 58.1948 47.5835C64.1372 46.3204 69.606 48.362 70.4098 52.1435C71.2136 55.9251 67.0479 60.0145 61.1055 61.2776Z" fill="#C2CCDE" fill-opacity="0.25" />
  <path d="M51.1258 14.3265C47.3443 15.1303 44.6511 17.5336 45.1104 19.6945L45.9423 23.6081C47.4492 22.0223 49.7074 20.7621 52.3733 20.1954C55.0392 19.6288 57.6146 19.8616 59.6363 20.6973L58.8045 16.7837C58.3452 14.6229 54.9073 13.5227 51.1258 14.3265Z" fill="#C2CCDE" fill-opacity="0.25" />
  <path d="M48.8905 56.7176C49.6943 60.4991 55.1632 62.5407 61.1055 61.2776C67.0479 60.0145 71.2136 55.9251 70.4098 52.1435C69.606 48.362 64.1372 46.3204 58.1948 47.5835C52.2524 48.8466 48.0868 52.9361 48.8905 56.7176Z" fill="#C2CCDE" fill-opacity="0.25" />
  <path d="M44.0447 30.7475H35.751L35.7775 46.7475H44.0182L44.0447 30.7475Z" fill="#C2CCDE" fill-opacity="0.25" />
  <path d="M27.4222 20.1954C22.0201 19.0471 16.9891 21.1818 16.1854 24.9633L4.49494 51.104C3.11702 57.5866 9.00691 64.3311 17.6504 66.1683C26.2938 68.0056 34.4177 64.2398 35.7957 57.7572L35.7483 29.1216C36.5521 25.34 32.8244 21.3437 27.4222 20.1954ZM27.4222 20.1954C30.0881 20.7621 32.3462 22.0223 33.8532 23.6081L34.6851 19.6945C35.1444 17.5336 32.4512 15.1303 28.6697 14.3265C24.8882 13.5227 21.4503 14.6229 20.991 16.7837L20.1591 20.6973C22.1808 19.8616 24.7563 19.6288 27.4222 20.1954ZM52.3733 20.1954C57.7754 19.0471 62.8063 21.1818 63.6101 24.9633L75.3005 51.104C76.6784 57.5866 70.7886 64.3311 62.1451 66.1683C53.5017 68.0056 45.3777 64.2398 43.9998 57.7572L44.0472 29.1216C43.2434 25.34 46.9711 21.3437 52.3733 20.1954ZM52.3733 20.1954C49.7074 20.7621 47.4492 22.0223 45.9423 23.6081L45.1104 19.6945C44.6511 17.5336 47.3443 15.1303 51.1258 14.3265C54.9073 13.5227 58.3452 14.6229 58.8045 16.7837L59.6363 20.6973C57.6146 19.8616 55.0392 19.6288 52.3733 20.1954ZM30.9049 56.7176C30.1011 60.4991 24.6323 62.5407 18.6899 61.2776C12.7475 60.0145 8.58189 55.9251 9.38568 52.1435C10.1895 48.362 15.6583 46.3205 21.6007 47.5835C27.5431 48.8466 31.7087 52.9361 30.9049 56.7176ZM48.8905 56.7176C49.6943 60.4991 55.1632 62.5407 61.1055 61.2776C67.0479 60.0145 71.2136 55.9251 70.4098 52.1435C69.606 48.362 64.1372 46.3205 58.1948 47.5835C52.2524 48.8466 48.0868 52.9361 48.8905 56.7176ZM35.751 30.7475H44.0447L44.0182 46.7475H35.7775L35.751 30.7475Z" stroke="" stroke-linecap="round" stroke-linejoin="round" />
</svg>